<svg xmlns="http://www.w3.org/2000/svg" width="447.999" height="318.23" viewBox="0 0 447.999 318.23" id="youtube">
  <g transform="translate(-2559.51 -728.891)">
    <g>
      <path d="m 2740.3109,823.2427 112.7984,64.76359 -112.7984,64.76361 z"></path>
      <path fill="none" stroke="#000" stroke-width="16" d="m 2989.9073,783.66493 c -4.7999,-17.98989 -19.1996,-32.38178 -37.1994,-38.37844 -33.5995,-8.39526 -169.1976,-8.39526 -169.1976,-8.39526 0,0 -135.598,0 -169.1976,8.39526 -17.9998,5.99666 -32.3995,20.38855 -37.1995,38.37844 -9.5999,33.58114 -9.5999,104.34136 -9.5999,104.34136 0,0 0,69.56089 9.5999,104.34134 4.8,17.98987 19.1997,32.38177 37.1995,37.17907 33.5996,9.5946 169.1976,9.5946 169.1976,9.5946 0,0 135.5981,0 169.1976,-9.5946 17.9998,-4.7973 32.3995,-19.1892 37.1994,-37.17907 9.5999,-34.78045 9.5999,-104.34134 9.5999,-104.34134 0,0 0,-70.76022 -9.5999,-104.34136 z m -249.5964,169.10495 c 0,-129.52718 0,-129.52718 0,-129.52718 112.7984,64.76359 112.7984,64.76359 112.7984,64.76359 z"></path>
    </g>
  </g>
</svg>
